<svg xmlns="http://www.w3.org/2000/svg" xmlns:xlink="http://www.w3.org/1999/xlink" width="1400" zoomAndPan="magnify" viewBox="0 0 1050 374.999991" height="500" preserveAspectRatio="xMidYMid meet" version="1.2"><defs/><g id="cc32aae399"><g style="fill:#000000;fill-opacity:1;"><g transform="translate(139.449866, 225.376627)"><path style="stroke:none" d="M 83.015625 0 L 72.265625 -31.65625 L 28.640625 -31.65625 L 17.265625 0 L 2.125 0 L 43.03125 -108.78125 L 59.6875 -108.78125 L 99.078125 0 Z M 66.96875 -44.6875 L 50.90625 -92.5625 L 50.59375 -92.5625 L 33.171875 -44.6875 Z M 66.96875 -44.6875 "/></g></g><g style="fill:#000000;fill-opacity:1;"><g transform="translate(240.504713, 225.376627)"><path style="stroke:none" d="M 63.03125 0 L 63.03125 -10.90625 L 62.71875 -10.90625 C 58.175781 -2.125 50.550781 2.265625 39.84375 2.265625 C 32.46875 2.265625 26.179688 0.296875 20.984375 -3.640625 C 15.785156 -7.578125 11.867188 -12.878906 9.234375 -19.546875 C 6.609375 -26.210938 5.296875 -33.6875 5.296875 -41.96875 C 5.296875 -49.644531 6.660156 -56.488281 9.390625 -62.5 C 12.117188 -68.507812 15.984375 -73.175781 20.984375 -76.5 C 25.984375 -79.832031 31.765625 -81.5 38.328125 -81.5 C 43.273438 -81.5 47.640625 -80.460938 51.421875 -78.390625 C 55.210938 -76.328125 58.726562 -72.875 61.96875 -68.03125 L 62.265625 -68.03125 L 62.265625 -108.78125 L 75.59375 -108.78125 L 75.59375 0 Z M 40.453125 -9.234375 C 46.710938 -9.234375 51.882812 -11.582031 55.96875 -16.28125 C 60.0625 -20.976562 62.109375 -27.46875 62.109375 -35.75 C 62.109375 -47.0625 60.34375 -55.519531 56.8125 -61.125 C 53.28125 -66.726562 47.878906 -69.53125 40.609375 -69.53125 C 26.265625 -69.53125 19.09375 -59.988281 19.09375 -40.90625 C 19.09375 -30.800781 20.957031 -22.992188 24.6875 -17.484375 C 28.425781 -11.984375 33.679688 -9.234375 40.453125 -9.234375 Z M 40.453125 -9.234375 "/></g><g transform="translate(324.742358, 225.376627)"><path style="stroke:none" d="M 37.578125 -14.703125 L 60 -79.234375 L 74.53125 -79.234375 L 44.390625 0 L 30.15625 0 L 1.21875 -79.234375 L 16.671875 -79.234375 L 37.265625 -14.703125 Z M 37.578125 -14.703125 "/></g></g><g style="fill:#000000;fill-opacity:1;"><g transform="translate(396.707994, 225.376627)"><path style="stroke:none" d="M 75.90625 -9.09375 C 77.3125 -9.09375 78.773438 -9.296875 80.296875 -9.703125 L 80.296875 0 C 77.265625 1.007812 74.789062 1.515625 72.875 1.515625 C 68.53125 1.515625 65.171875 0.582031 62.796875 -1.28125 C 60.421875 -3.15625 59.132812 -6.265625 58.9375 -10.609375 C 51.363281 -2.023438 41.867188 2.265625 30.453125 2.265625 C 23.078125 2.265625 17.066406 0.144531 12.421875 -4.09375 C 7.773438 -8.332031 5.453125 -13.835938 5.453125 -20.609375 C 5.453125 -27.472656 7.472656 -33.078125 11.515625 -37.421875 C 15.554688 -41.765625 21.515625 -44.441406 29.390625 -45.453125 L 51.515625 -48.171875 C 53.929688 -48.472656 55.695312 -49.332031 56.8125 -50.75 C 57.925781 -52.164062 58.484375 -54.390625 58.484375 -57.421875 C 58.484375 -66.109375 52.269531 -70.453125 39.84375 -70.453125 C 34.382812 -70.453125 30.164062 -69.238281 27.1875 -66.8125 C 24.207031 -64.382812 22.367188 -60.492188 21.671875 -55.140625 L 9.390625 -55.140625 C 9.597656 -63.628906 12.375 -70.144531 17.71875 -74.6875 C 23.070312 -79.226562 30.953125 -81.5 41.359375 -81.5 C 50.242188 -81.5 57.488281 -79.628906 63.09375 -75.890625 C 68.707031 -72.160156 71.515625 -66.609375 71.515625 -59.234375 L 71.515625 -13.484375 C 71.515625 -12.171875 71.863281 -11.109375 72.5625 -10.296875 C 73.269531 -9.492188 74.382812 -9.09375 75.90625 -9.09375 Z M 58.171875 -27.421875 L 58.171875 -40.453125 C 56.960938 -39.441406 55.019531 -38.632812 52.34375 -38.03125 C 49.664062 -37.425781 43.628906 -36.460938 34.234375 -35.140625 C 29.390625 -34.441406 25.675781 -33.082031 23.09375 -31.0625 C 20.519531 -29.039062 19.234375 -26.160156 19.234375 -22.421875 C 19.234375 -13.328125 24.035156 -8.78125 33.640625 -8.78125 C 37.773438 -8.78125 41.734375 -9.613281 45.515625 -11.28125 C 49.304688 -12.945312 52.363281 -15.21875 54.6875 -18.09375 C 57.007812 -20.976562 58.171875 -24.085938 58.171875 -27.421875 Z M 58.171875 -27.421875 "/></g><g transform="translate(480.945639, 225.376627)"><path style="stroke:none" d="M 61.046875 -48.625 C 61.046875 -55.90625 59.757812 -61.207031 57.1875 -64.53125 C 54.613281 -67.863281 50.296875 -69.53125 44.234375 -69.53125 C 37.972656 -69.53125 32.894531 -67.179688 29 -62.484375 C 25.113281 -57.796875 23.171875 -51.613281 23.171875 -43.9375 L 23.171875 0 L 9.84375 0 L 9.84375 -79.234375 L 22.421875 -79.234375 L 22.421875 -68.03125 L 22.71875 -68.03125 C 26.15625 -72.769531 29.84375 -76.195312 33.78125 -78.3125 C 37.71875 -80.4375 42.007812 -81.5 46.65625 -81.5 C 55.445312 -81.5 62.265625 -79.148438 67.109375 -74.453125 C 71.960938 -69.765625 74.390625 -63.128906 74.390625 -54.546875 L 74.390625 0 L 61.046875 0 Z M 61.046875 -48.625 "/></g><g transform="translate(565.183285, 225.376627)"><path style="stroke:none" d="M 40.609375 -69.53125 C 33.640625 -69.53125 28.257812 -66.828125 24.46875 -61.421875 C 20.675781 -56.023438 18.78125 -48.78125 18.78125 -39.6875 C 18.78125 -29.789062 20.597656 -22.238281 24.234375 -17.03125 C 27.867188 -11.832031 33.273438 -9.234375 40.453125 -9.234375 C 45.097656 -9.234375 49.160156 -10.875 52.640625 -14.15625 C 56.128906 -17.445312 58.378906 -22.070312 59.390625 -28.03125 L 72.265625 -28.03125 C 71.148438 -18.632812 67.765625 -11.234375 62.109375 -5.828125 C 56.453125 -0.429688 49.082031 2.265625 40 2.265625 C 32.820312 2.265625 26.554688 0.601562 21.203125 -2.71875 C 15.859375 -6.050781 11.742188 -10.75 8.859375 -16.8125 C 5.984375 -22.875 4.546875 -29.796875 4.546875 -37.578125 C 4.546875 -50.898438 7.878906 -61.550781 14.546875 -69.53125 C 21.210938 -77.507812 30.554688 -81.5 42.578125 -81.5 C 51.054688 -81.5 57.945312 -78.898438 63.25 -73.703125 C 68.550781 -68.503906 71.554688 -61.460938 72.265625 -52.578125 L 59.390625 -52.578125 C 57.671875 -63.878906 51.410156 -69.53125 40.609375 -69.53125 Z M 40.609375 -69.53125 "/></g><g transform="translate(640.936563, 225.376627)"><path style="stroke:none" d="M 43.328125 -9.234375 C 46.765625 -9.234375 49.992188 -9.96875 53.015625 -11.4375 C 56.046875 -12.90625 58.519531 -14.847656 60.4375 -17.265625 C 62.363281 -19.691406 63.476562 -22.21875 63.78125 -24.84375 L 77.109375 -24.84375 C 75.191406 -16.363281 71.300781 -9.722656 65.4375 -4.921875 C 59.582031 -0.128906 51.859375 2.265625 42.265625 2.265625 C 34.585938 2.265625 28.019531 0.550781 22.5625 -2.875 C 17.113281 -6.3125 13 -11.035156 10.21875 -17.046875 C 7.445312 -23.054688 6.0625 -29.898438 6.0625 -37.578125 C 6.0625 -51.003906 9.367188 -61.679688 15.984375 -69.609375 C 22.597656 -77.535156 31.96875 -81.5 44.09375 -81.5 C 55 -81.5 63.40625 -77.457031 69.3125 -69.375 C 75.21875 -61.300781 78.171875 -49.941406 78.171875 -35.296875 L 20.296875 -35.296875 C 20.296875 -26.816406 22.238281 -20.351562 26.125 -15.90625 C 30.019531 -11.457031 35.753906 -9.234375 43.328125 -9.234375 Z M 42.265625 -69.53125 C 38.429688 -69.53125 34.847656 -68.46875 31.515625 -66.34375 C 28.179688 -64.226562 25.476562 -61.351562 23.40625 -57.71875 C 21.332031 -54.082031 20.296875 -50.144531 20.296875 -45.90625 L 64.390625 -45.90625 C 63.171875 -61.65625 55.796875 -69.53125 42.265625 -69.53125 Z M 42.265625 -69.53125 "/></g><g transform="translate(725.174208, 225.376627)"><path style="stroke:none" d=""/></g></g><g style="fill:#000000;fill-opacity:1;"><g transform="translate(767.293026, 225.376627)"><path style="stroke:none" d="M 83.015625 0 L 72.265625 -31.65625 L 28.640625 -31.65625 L 17.265625 0 L 2.125 0 L 43.03125 -108.78125 L 59.6875 -108.78125 L 99.078125 0 Z M 66.96875 -44.6875 L 50.90625 -92.5625 L 50.59375 -92.5625 L 33.171875 -44.6875 Z M 66.96875 -44.6875 "/></g></g><g style="fill:#000000;fill-opacity:1;"><g transform="translate(868.347872, 225.376627)"><path style="stroke:none" d="M 13.78125 0 L 13.78125 -108.78125 L 28.484375 -108.78125 L 28.484375 0 Z M 13.78125 0 "/></g></g></g></svg>
