<svg xmlns="http://www.w3.org/2000/svg" xmlns:xlink="http://www.w3.org/1999/xlink" width="1400" zoomAndPan="magnify" viewBox="0 0 1050 374.999991" height="500" preserveAspectRatio="xMidYMid meet" version="1.2"><defs/><g id="4f82e21ad2"><g style="fill:#000000;fill-opacity:1;"><g transform="translate(5.396062, 238.548437)"><path style="stroke:none" d="M 111.890625 0 L 97.390625 -42.671875 L 38.59375 -42.671875 L 23.28125 0 L 2.859375 0 L 57.984375 -146.609375 L 80.453125 -146.609375 L 133.53125 0 Z M 90.25 -60.234375 L 68.609375 -124.765625 L 68.203125 -124.765625 L 44.71875 -60.234375 Z M 90.25 -60.234375 "/></g></g><g style="fill:#000000;fill-opacity:1;"><g transform="translate(141.593275, 238.548437)"><path style="stroke:none" d="M 84.9375 0 L 84.9375 -14.703125 L 84.53125 -14.703125 C 78.40625 -2.859375 68.128906 3.0625 53.703125 3.0625 C 43.765625 3.0625 35.289062 0.410156 28.28125 -4.890625 C 21.269531 -10.203125 15.992188 -17.347656 12.453125 -26.328125 C 8.910156 -35.316406 7.140625 -45.394531 7.140625 -56.5625 C 7.140625 -66.90625 8.976562 -76.125 12.65625 -84.21875 C 16.332031 -92.320312 21.539062 -98.617188 28.28125 -103.109375 C 35.019531 -107.609375 42.8125 -109.859375 51.65625 -109.859375 C 58.332031 -109.859375 64.222656 -108.460938 69.328125 -105.671875 C 74.429688 -102.878906 79.160156 -98.21875 83.515625 -91.6875 L 83.921875 -91.6875 L 83.921875 -146.609375 L 101.890625 -146.609375 L 101.890625 0 Z M 54.515625 -12.453125 C 62.953125 -12.453125 69.925781 -15.613281 75.4375 -21.9375 C 80.957031 -28.269531 83.71875 -37.019531 83.71875 -48.1875 C 83.71875 -63.4375 81.332031 -74.835938 76.5625 -82.390625 C 71.800781 -89.941406 64.519531 -93.71875 54.71875 -93.71875 C 35.394531 -93.71875 25.734375 -80.851562 25.734375 -55.125 C 25.734375 -41.519531 28.25 -31.003906 33.28125 -23.578125 C 38.320312 -16.160156 45.398438 -12.453125 54.515625 -12.453125 Z M 54.515625 -12.453125 "/></g><g transform="translate(255.125014, 238.548437)"><path style="stroke:none" d="M 50.640625 -19.8125 L 80.859375 -106.796875 L 100.453125 -106.796875 L 59.828125 0 L 40.640625 0 L 1.640625 -106.796875 L 22.453125 -106.796875 L 50.234375 -19.8125 Z M 50.640625 -19.8125 "/></g></g><g style="fill:#000000;fill-opacity:1;"><g transform="translate(352.117087, 238.548437)"><path style="stroke:none" d="M 102.296875 -12.25 C 104.203125 -12.25 106.175781 -12.519531 108.21875 -13.0625 L 108.21875 0 C 104.132812 1.363281 100.800781 2.046875 98.21875 2.046875 C 92.363281 2.046875 87.835938 0.785156 84.640625 -1.734375 C 81.441406 -4.253906 79.703125 -8.441406 79.421875 -14.296875 C 69.210938 -2.722656 56.421875 3.0625 41.046875 3.0625 C 31.109375 3.0625 23.003906 0.203125 16.734375 -5.515625 C 10.472656 -11.234375 7.34375 -18.648438 7.34375 -27.765625 C 7.34375 -37.023438 10.066406 -44.582031 15.515625 -50.4375 C 20.960938 -56.289062 28.992188 -59.894531 39.609375 -61.25 L 69.421875 -64.9375 C 72.691406 -65.34375 75.070312 -66.5 76.5625 -68.40625 C 78.0625 -70.3125 78.8125 -73.304688 78.8125 -77.390625 C 78.8125 -89.097656 70.441406 -94.953125 53.703125 -94.953125 C 46.347656 -94.953125 40.660156 -93.316406 36.640625 -90.046875 C 32.628906 -86.773438 30.148438 -81.535156 29.203125 -74.328125 L 12.65625 -74.328125 C 12.925781 -85.753906 16.671875 -94.53125 23.890625 -100.65625 C 31.109375 -106.789062 41.726562 -109.859375 55.75 -109.859375 C 67.726562 -109.859375 77.492188 -107.335938 85.046875 -102.296875 C 92.597656 -97.265625 96.375 -89.78125 96.375 -79.84375 L 96.375 -18.171875 C 96.375 -16.398438 96.847656 -14.96875 97.796875 -13.875 C 98.753906 -12.789062 100.253906 -12.25 102.296875 -12.25 Z M 78.40625 -36.953125 L 78.40625 -54.515625 C 76.769531 -53.148438 74.148438 -52.0625 70.546875 -51.25 C 66.941406 -50.4375 58.804688 -49.144531 46.140625 -47.375 C 39.609375 -46.414062 34.609375 -44.578125 31.140625 -41.859375 C 27.671875 -39.140625 25.9375 -35.257812 25.9375 -30.21875 C 25.9375 -17.96875 32.398438 -11.84375 45.328125 -11.84375 C 50.910156 -11.84375 56.253906 -12.960938 61.359375 -15.203125 C 66.460938 -17.453125 70.578125 -20.515625 73.703125 -24.390625 C 76.835938 -28.273438 78.40625 -32.460938 78.40625 -36.953125 Z M 78.40625 -36.953125 "/></g><g transform="translate(465.648827, 238.548437)"><path style="stroke:none" d="M 82.28125 -65.546875 C 82.28125 -75.347656 80.546875 -82.492188 77.078125 -86.984375 C 73.609375 -91.472656 67.789062 -93.71875 59.625 -93.71875 C 51.1875 -93.71875 44.34375 -90.550781 39.09375 -84.21875 C 33.851562 -77.894531 31.234375 -69.5625 31.234375 -59.21875 L 31.234375 0 L 13.265625 0 L 13.265625 -106.796875 L 30.21875 -106.796875 L 30.21875 -91.6875 L 30.625 -91.6875 C 35.257812 -98.082031 40.226562 -102.707031 45.53125 -105.5625 C 50.84375 -108.425781 56.628906 -109.859375 62.890625 -109.859375 C 74.734375 -109.859375 83.921875 -106.691406 90.453125 -100.359375 C 96.984375 -94.023438 100.25 -85.070312 100.25 -73.5 L 100.25 0 L 82.28125 0 Z M 82.28125 -65.546875 "/></g><g transform="translate(579.180566, 238.548437)"><path style="stroke:none" d="M 54.71875 -93.71875 C 45.332031 -93.71875 38.082031 -90.078125 32.96875 -82.796875 C 27.863281 -75.515625 25.3125 -65.75 25.3125 -53.5 C 25.3125 -40.15625 27.757812 -29.976562 32.65625 -22.96875 C 37.5625 -15.957031 44.847656 -12.453125 54.515625 -12.453125 C 60.773438 -12.453125 66.253906 -14.664062 70.953125 -19.09375 C 75.648438 -23.519531 78.679688 -29.75 80.046875 -37.78125 L 97.390625 -37.78125 C 95.898438 -25.113281 91.34375 -15.140625 83.71875 -7.859375 C 76.09375 -0.578125 66.15625 3.0625 53.90625 3.0625 C 44.238281 3.0625 35.796875 0.816406 28.578125 -3.671875 C 21.367188 -8.160156 15.820312 -14.488281 11.9375 -22.65625 C 8.0625 -30.832031 6.125 -40.160156 6.125 -50.640625 C 6.125 -68.609375 10.613281 -82.96875 19.59375 -93.71875 C 28.582031 -104.476562 41.175781 -109.859375 57.375 -109.859375 C 68.8125 -109.859375 78.101562 -106.351562 85.25 -99.34375 C 92.394531 -92.332031 96.441406 -82.835938 97.390625 -70.859375 L 80.046875 -70.859375 C 77.722656 -86.097656 69.28125 -93.71875 54.71875 -93.71875 Z M 54.71875 -93.71875 "/></g><g transform="translate(681.277454, 238.548437)"><path style="stroke:none" d="M 58.390625 -12.453125 C 63.023438 -12.453125 67.382812 -13.4375 71.46875 -15.40625 C 75.550781 -17.382812 78.882812 -20.003906 81.46875 -23.265625 C 84.050781 -26.535156 85.550781 -29.941406 85.96875 -33.484375 L 103.9375 -33.484375 C 101.34375 -22.046875 96.097656 -13.09375 88.203125 -6.625 C 80.304688 -0.164062 69.894531 3.0625 56.96875 3.0625 C 46.625 3.0625 37.773438 0.75 30.421875 -3.875 C 23.066406 -8.507812 17.519531 -14.875 13.78125 -22.96875 C 10.039062 -31.070312 8.171875 -40.296875 8.171875 -50.640625 C 8.171875 -68.742188 12.628906 -83.140625 21.546875 -93.828125 C 30.460938 -104.515625 43.085938 -109.859375 59.421875 -109.859375 C 74.117188 -109.859375 85.445312 -104.410156 93.40625 -93.515625 C 101.375 -82.628906 105.359375 -67.316406 105.359375 -47.578125 L 27.359375 -47.578125 C 27.359375 -36.140625 29.976562 -27.425781 35.21875 -21.4375 C 40.457031 -15.445312 48.179688 -12.453125 58.390625 -12.453125 Z M 56.96875 -93.71875 C 51.789062 -93.71875 46.957031 -92.285156 42.46875 -89.421875 C 37.976562 -86.566406 34.335938 -82.6875 31.546875 -77.78125 C 28.753906 -72.882812 27.359375 -67.582031 27.359375 -61.875 L 86.78125 -61.875 C 85.144531 -83.101562 75.207031 -93.71875 56.96875 -93.71875 Z M 56.96875 -93.71875 "/></g><g transform="translate(794.809194, 238.548437)"><path style="stroke:none" d=""/></g></g><g style="fill:#000000;fill-opacity:1;"><g transform="translate(851.575056, 238.548437)"><path style="stroke:none" d="M 111.890625 0 L 97.390625 -42.671875 L 38.59375 -42.671875 L 23.28125 0 L 2.859375 0 L 57.984375 -146.609375 L 80.453125 -146.609375 L 133.53125 0 Z M 90.25 -60.234375 L 68.609375 -124.765625 L 68.203125 -124.765625 L 44.71875 -60.234375 Z M 90.25 -60.234375 "/></g></g><g style="fill:#000000;fill-opacity:1;"><g transform="translate(987.772269, 238.548437)"><path style="stroke:none" d="M 18.578125 0 L 18.578125 -146.609375 L 38.390625 -146.609375 L 38.390625 0 Z M 18.578125 0 "/></g></g></g></svg>
